<svg width="1318.9" height="300" viewBox="0 0 1318.9 300" xmlns="http://www.w3.org/2000/svg" role="img" aria-label="Forgelabs">
<title>Forgelabs</title>
<g transform="translate(56.00,74.60) scale(0.082314)">
<g transform="translate(0.000000,1832.000000) scale(0.100000,-0.100000)" fill="#DB2777"><path d="M11540 15961 c-14 -5 -45 -18 -69 -30 -24 -13 -75 -29 -114 -37 -90
-19 -92 -20 -200 -120 -51 -47 -118 -99 -150 -116 -65 -35 -74 -46 -142 -173
-54 -102 -70 -123 -105 -139 -17 -7 -223 -12 -665 -16 -640 -5 -640 -5 -705
-37 -51 -25 -86 -34 -162 -42 -124 -12 -115 -7 -305 -192 -89 -87 -182 -169
-205 -181 -43 -23 -43 -23 -3013 -28 l-2970 -5 -105 -54 c-79 -40 -123 -71
-177 -124 -103 -99 -105 -107 -101 -362 3 -210 3 -210 95 -393 57 -113 109
-203 138 -237 26 -30 80 -119 121 -201 65 -128 86 -159 158 -236 54 -57 97
-113 121 -160 31 -61 69 -106 239 -278 177 -180 207 -215 241 -283 51 -101
150 -199 254 -251 63 -32 103 -66 280 -240 172 -170 217 -209 276 -239 45 -22
103 -66 162 -121 55 -51 118 -98 155 -117 35 -17 90 -54 122 -81 33 -27 87
-63 120 -80 34 -17 88 -53 120 -80 33 -27 87 -63 120 -80 34 -17 88 -53 120
-80 34 -28 121 -80 200 -120 80 -40 167 -92 200 -120 77 -64 235 -143 324
-162 51 -10 144 -52 360 -160 216 -108 309 -149 360 -160 43 -9 118 -39 200
-80 82 -41 156 -71 200 -80 38 -8 92 -26 120 -40 27 -14 81 -32 120 -40 38 -8
92 -26 120 -40 27 -14 81 -32 120 -40 38 -8 92 -26 120 -40 27 -14 81 -32 120
-40 38 -8 93 -26 122 -41 38 -19 78 -29 149 -36 71 -7 113 -18 160 -40 35 -16
94 -36 131 -43 37 -8 92 -27 121 -42 51 -26 64 -28 225 -34 165 -7 174 -8 239
-39 37 -17 98 -38 135 -45 37 -8 92 -27 121 -42 54 -28 54 -28 304 -34 250 -5
250 -5 320 -40 70 -34 70 -34 320 -40 250 -5 250 -5 320 -40 70 -35 70 -35
640 -40 l571 -5 159 -77 c88 -42 180 -80 205 -84 76 -11 120 -42 255 -178 105
-105 138 -146 168 -204 21 -41 60 -100 87 -133 58 -70 135 -223 150 -300 6
-30 28 -90 48 -134 37 -80 37 -80 37 -275 0 -195 0 -195 -37 -275 -20 -44 -42
-105 -48 -135 -15 -81 -248 -545 -311 -620 -27 -32 -65 -91 -86 -132 -55 -108
-433 -488 -539 -541 -39 -19 -97 -58 -130 -85 -32 -27 -86 -63 -120 -80 -33
-17 -87 -53 -120 -80 -32 -27 -86 -63 -120 -80 -33 -17 -87 -53 -120 -80 -80
-67 -383 -219 -476 -238 -44 -9 -118 -39 -200 -80 -83 -41 -157 -71 -201 -80
-38 -8 -92 -26 -119 -40 -28 -14 -82 -32 -121 -40 -50 -11 -121 -41 -241 -102
-169 -86 -171 -88 -203 -142 -17 -30 -55 -83 -83 -118 -33 -40 -86 -130 -143
-245 l-92 -182 -3 -1090 c-3 -1212 -7 -1143 64 -1205 19 -17 81 -54 137 -83
102 -52 102 -52 1672 -57 1570 -5 1570 -5 1645 -40 74 -35 74 -35 370 -35 296
0 296 0 365 32 53 24 93 34 166 42 93 9 101 12 275 99 113 57 202 109 239 140
82 68 384 219 478 238 38 8 92 26 119 40 28 14 82 32 120 40 39 8 93 26 120
40 28 14 81 32 118 40 37 7 96 27 131 43 47 22 89 33 159 40 74 7 111 17 165
43 70 33 70 33 905 33 835 0 835 0 905 -33 54 -26 91 -36 165 -43 70 -7 112
-18 160 -40 48 -23 89 -33 160 -40 89 -9 105 -14 250 -84 93 -44 174 -76 204
-80 66 -9 711 -330 781 -389 106 -91 -88 -80 1640 -86 1530 -5 1530 -5 1605
-40 57 -27 87 -35 130 -35 43 0 73 8 130 35 75 35 75 35 445 40 370 5 370 5
472 57 56 29 118 66 137 83 71 63 67 -16 64 1285 -3 1170 -3 1170 -56 1275
-50 98 -62 115 -200 253 -147 148 -147 148 -337 244 -190 96 -190 96 -324 104
-134 8 -134 8 -290 83 -86 41 -176 78 -201 82 -57 8 -101 31 -165 84 -27 24
-113 74 -190 112 -79 40 -166 92 -199 120 -33 27 -91 65 -130 85 -108 54 -564
512 -620 622 -25 50 -65 104 -121 164 -81 86 -88 97 -214 350 -84 167 -135
282 -141 317 -6 30 -26 89 -45 130 -26 59 -34 94 -39 161 -5 72 -12 100 -43
165 -38 79 -38 79 -38 274 0 195 0 195 37 276 35 76 38 87 42 202 4 115 7 127
40 200 29 62 38 95 45 172 8 95 8 95 181 437 170 338 173 344 255 431 55 58
96 114 122 163 31 61 67 104 199 239 131 134 169 179 199 238 42 82 71 110
158 153 41 21 101 70 190 155 97 94 146 134 198 160 44 22 103 65 162 120 80
75 111 95 238 159 83 42 170 94 205 123 83 70 540 298 637 318 38 8 92 26 119
40 28 14 82 32 120 40 39 8 93 26 120 40 28 14 82 32 120 40 39 8 93 26 120
40 28 14 82 32 120 40 39 8 93 26 120 40 28 14 81 32 118 40 37 7 98 28 135
45 65 31 75 32 239 39 167 7 173 8 241 41 70 33 70 33 280 39 209 7 210 7 275
38 50 24 87 33 161 41 71 7 111 17 149 36 29 15 84 33 122 41 47 10 126 43
249 104 163 82 187 98 271 176 60 55 118 98 163 121 103 52 277 225 329 327
25 51 65 104 122 165 78 83 92 104 175 270 89 180 109 240 109 331 0 38 13 73
72 191 l73 144 3 650 c2 569 1 655 -13 691 -26 69 -142 172 -265 235 l-105 54
-7730 2 c-4251 1 -7741 -2 -7755 -6z m14777 -998 c119 -64 150 -264 68 -443
-18 -41 -39 -99 -45 -129 -15 -77 -92 -230 -150 -300 -27 -33 -66 -92 -87
-133 -52 -101 -202 -252 -299 -301 -38 -19 -98 -59 -134 -88 -104 -85 -243
-146 -360 -158 -72 -7 -111 -17 -162 -41 -60 -28 -81 -32 -200 -40 -121 -7
-139 -11 -203 -41 -70 -33 -70 -33 -280 -39 -209 -7 -210 -7 -275 -38 -49 -24
-88 -33 -160 -41 -70 -7 -112 -17 -160 -40 -48 -22 -89 -33 -160 -40 -89 -9
-105 -14 -240 -80 -136 -67 -151 -71 -241 -80 -95 -9 -98 -10 -309 -116 -151
-76 -234 -111 -282 -121 -93 -20 -402 -174 -483 -242 -34 -28 -120 -80 -201
-120 -79 -40 -166 -92 -200 -120 -32 -27 -86 -63 -120 -80 -33 -17 -87 -53
-120 -80 -32 -27 -88 -64 -124 -82 -104 -51 -910 -858 -964 -965 -25 -50 -65
-104 -122 -164 -51 -54 -96 -113 -114 -150 -17 -33 -53 -87 -80 -120 -28 -34
-83 -125 -124 -206 -41 -81 -95 -170 -121 -200 -62 -73 -223 -396 -242 -485
-7 -36 -27 -94 -43 -129 -23 -49 -31 -84 -36 -150 -5 -67 -13 -100 -37 -151
-31 -65 -31 -65 -37 -315 -6 -250 -6 -250 -43 -331 -37 -82 -37 -82 -37 -324
0 -242 0 -242 37 -324 36 -80 37 -82 43 -251 6 -170 6 -170 78 -314 59 -118
72 -153 72 -191 0 -26 4 -71 10 -99 14 -74 178 -399 235 -466 26 -30 80 -119
121 -201 65 -128 86 -159 158 -236 55 -57 96 -113 120 -160 30 -58 66 -102
180 -218 202 -206 226 -234 226 -269 0 -55 -10 -56 -586 -56 -520 0 -520 0
-635 56 -95 47 -129 71 -206 143 -58 54 -118 98 -160 120 -43 21 -103 66 -160
120 -55 51 -118 98 -155 117 -35 17 -90 54 -123 81 -43 36 -153 97 -399 220
-339 170 -339 170 -435 179 -71 7 -113 18 -160 40 -35 16 -94 36 -131 43 -37
8 -92 27 -121 42 -47 24 -71 28 -186 35 -121 7 -139 10 -205 41 -72 33 -72 33
-528 33 -456 0 -456 0 -528 -33 -66 -31 -84 -34 -205 -41 -115 -7 -139 -11
-186 -35 -29 -15 -85 -34 -123 -42 -39 -8 -93 -26 -120 -40 -28 -14 -82 -32
-120 -40 -44 -9 -118 -39 -200 -80 -84 -42 -156 -71 -202 -80 -77 -16 -96 -26
-171 -89 -27 -24 -113 -74 -191 -113 -80 -40 -166 -91 -200 -120 -32 -27 -87
-64 -122 -81 -37 -19 -100 -66 -155 -117 -57 -54 -117 -99 -159 -120 -41 -21
-103 -66 -155 -115 -148 -136 -83 -124 -688 -124 -537 0 -567 2 -585 35 -19
36 17 79 396 460 316 319 377 384 403 437 17 34 54 90 83 124 69 83 305 555
325 649 7 36 27 94 43 129 23 48 32 84 36 150 5 67 14 103 40 162 34 77 34 77
34 439 0 362 0 362 -34 439 -26 59 -35 95 -40 162 -4 66 -13 102 -36 150 -16
35 -36 93 -43 129 -10 45 -54 146 -146 330 -132 265 -132 265 -359 493 -227
228 -227 228 -577 404 -350 177 -350 177 -510 183 -176 8 -210 17 -236 67 -17
34 -27 4259 -10 4371 15 100 70 156 166 173 22 3 3264 6 7205 5 7165 -1 7165
-1 7207 -23z m-15974 -653 c63 -30 73 -32 125 -25 131 19 207 -2 256 -68 21
-28 21 -28 21 -1805 0 -1945 4 -1826 -59 -1860 -27 -15 -70 -17 -376 -17 -345
0 -345 0 -415 34 -64 31 -81 34 -203 41 -120 8 -139 12 -200 40 -60 29 -80 33
-200 40 -119 8 -140 12 -200 40 -51 24 -90 34 -162 41 -71 7 -111 18 -160 41
-58 27 -79 31 -198 38 -118 8 -140 12 -199 39 -36 17 -96 38 -133 45 -37 8
-91 26 -120 41 -38 19 -78 29 -149 36 -71 7 -113 18 -160 40 -35 16 -94 36
-131 43 -46 10 -132 47 -278 120 -149 74 -231 110 -280 120 -43 9 -118 39
-200 80 -82 41 -156 71 -200 80 -97 20 -712 327 -796 398 -33 27 -87 63 -120
80 -34 17 -88 53 -120 80 -35 29 -122 81 -205 123 -127 64 -158 84 -238 159
-59 55 -118 98 -162 120 -52 26 -101 66 -199 160 -101 97 -145 132 -203 161
-111 56 -726 671 -783 784 -20 41 -62 103 -92 139 -64 75 -69 110 -21 146 28
21 28 21 2405 21 2601 0 2425 4 2460 -59 15 -28 17 -93 22 -671 5 -640 5 -640
59 -748 64 -126 176 -246 248 -266 49 -14 397 -14 446 0 43 11 177 132 205
184 15 27 17 115 22 950 5 842 6 923 22 951 18 32 41 45 118 65 24 6 67 22 93
36 71 36 117 42 262 39 123 -3 134 -5 198 -36z m6482 -8558 c54 -26 91 -36
165 -43 70 -7 112 -18 159 -40 35 -16 94 -36 131 -43 41 -9 118 -40 198 -80
82 -41 156 -71 200 -80 88 -18 240 -94 316 -158 35 -29 122 -81 205 -123 127
-64 158 -84 238 -159 56 -51 118 -98 155 -117 35 -17 86 -50 113 -74 28 -23
76 -58 108 -78 99 -63 95 -47 96 -449 1 -293 4 -358 18 -409 20 -72 1 -152
-47 -201 -35 -34 -50 -35 -119 -3 -29 14 -84 32 -121 39 -37 8 -90 26 -118 40
-27 14 -81 32 -120 40 -38 8 -93 26 -122 41 -38 19 -78 29 -149 36 -73 8 -111
17 -161 41 -62 30 -72 31 -236 38 -167 7 -173 8 -240 40 -69 34 -69 34 -319
40 -250 6 -250 6 -325 40 -73 35 -76 35 -210 35 -134 0 -136 0 -210 -35 -75
-35 -75 -35 -525 -40 -450 -5 -450 -5 -517 -38 -62 -31 -78 -34 -200 -41 -116
-7 -140 -11 -187 -35 -29 -15 -85 -34 -123 -42 -39 -8 -93 -26 -120 -40 -28
-14 -82 -32 -120 -40 -39 -8 -93 -26 -120 -40 -28 -14 -81 -32 -118 -40 -37
-7 -96 -27 -131 -44 -100 -47 -172 -35 -200 32 -24 57 -20 861 5 910 29 59
133 156 209 194 42 22 102 67 160 120 56 53 118 99 158 119 36 18 92 56 125
83 32 27 86 63 119 80 33 16 90 54 126 83 47 39 138 90 325 181 258 128 259
128 354 137 73 7 111 17 162 41 61 28 81 32 200 39 116 7 140 11 187 35 79 40
115 45 346 43 210 -2 210 -2 280 -35z m-3868 -1269 c110 -59 115 -87 111 -684
-4 -558 2 -534 -137 -554 -25 -3 -76 -20 -115 -38 -71 -32 -71 -32 -1286 -32
-1330 0 -1264 -3 -1298 59 -15 28 -17 83 -17 601 0 608 1 621 49 647 45 24
127 26 1371 24 1280 -1 1280 -1 1322 -23z m9684 17 c67 -13 84 -29 138 -135
61 -118 63 -199 8 -320 -36 -81 -36 -81 -39 -425 -4 -387 -7 -404 -69 -431
-29 -12 -232 -14 -1334 -14 -1300 0 -1300 0 -1342 22 -108 58 -113 86 -112
643 0 463 4 518 37 553 30 32 154 96 204 106 63 13 2443 13 2509 1z"/></g>
</g>
<g transform="translate(352.31,215.00) scale(0.18440,-0.18440)" fill="#F5F0F2"><path d="M519 702V565H233V417H447V284H233V0H62V702Z M555.0 279Q555.0 365 593.0 430.5Q631.0 496 697.0 531.0Q763.0 566 845.0 566Q927.0 566 993.0 531.0Q1059.0 496 1097.0 430.5Q1135.0 365 1135.0 279Q1135.0 193 1096.5 127.5Q1058.0 62 991.5 27.0Q925.0 -8 843.0 -8Q761.0 -8 695.5 27.0Q630.0 62 592.5 127.0Q555.0 192 555.0 279ZM961.0 279Q961.0 346 927.5 382.0Q894.0 418 845.0 418Q795.0 418 762.0 382.5Q729.0 347 729.0 279Q729.0 212 761.5 176.0Q794.0 140 843.0 140Q892.0 140 926.5 176.0Q961.0 212 961.0 279Z M1552.0 564V383H1505.0Q1441.0 383 1409.0 355.5Q1377.0 328 1377.0 259V0H1206.0V558H1377.0V465Q1407.0 511 1452.0 537.5Q1497.0 564 1552.0 564Z M1998.0 479V558H2169.0V1Q2169.0 -76 2138.5 -138.5Q2108.0 -201 2045.5 -238.0Q1983.0 -275 1890.0 -275Q1766.0 -275 1689.0 -216.5Q1612.0 -158 1601.0 -58H1770.0Q1778.0 -90 1808.0 -108.5Q1838.0 -127 1882.0 -127Q1935.0 -127 1966.5 -96.5Q1998.0 -66 1998.0 1V80Q1973.0 41 1929.0 16.5Q1885.0 -8 1826.0 -8Q1757.0 -8 1701.0 27.5Q1645.0 63 1612.5 128.5Q1580.0 194 1580.0 280Q1580.0 366 1612.5 431.0Q1645.0 496 1701.0 531.0Q1757.0 566 1826.0 566Q1885.0 566 1929.5 542.0Q1974.0 518 1998.0 479ZM1876.0 417Q1825.0 417 1789.5 380.5Q1754.0 344 1754.0 280Q1754.0 216 1789.5 178.5Q1825.0 141 1876.0 141Q1927.0 141 1962.5 178.0Q1998.0 215 1998.0 279Q1998.0 343 1962.5 380.0Q1927.0 417 1876.0 417Z M2796.0 238H2409.0Q2413.0 186 2442.5 158.5Q2472.0 131 2515.0 131Q2579.0 131 2604.0 185H2786.0Q2772.0 130 2735.5 86.0Q2699.0 42 2644.0 17.0Q2589.0 -8 2521.0 -8Q2439.0 -8 2375.0 27.0Q2311.0 62 2275.0 127.0Q2239.0 192 2239.0 279Q2239.0 366 2274.5 431.0Q2310.0 496 2374.0 531.0Q2438.0 566 2521.0 566Q2602.0 566 2665.0 532.0Q2728.0 498 2763.5 435.0Q2799.0 372 2799.0 288Q2799.0 264 2796.0 238ZM2624.0 333Q2624.0 377 2594.0 403.0Q2564.0 429 2519.0 429Q2476.0 429 2446.5 404.0Q2417.0 379 2410.0 333Z M3040.0 740V0H2869.0V740Z M3356.0 566Q3415.0 566 3459.5 542.0Q3504.0 518 3528.0 479V558H3699.0V0H3528.0V79Q3503.0 40 3458.5 16.0Q3414.0 -8 3355.0 -8Q3287.0 -8 3231.0 27.5Q3175.0 63 3142.5 128.5Q3110.0 194 3110.0 280Q3110.0 366 3142.5 431.0Q3175.0 496 3231.0 531.0Q3287.0 566 3356.0 566ZM3406.0 417Q3355.0 417 3319.5 380.5Q3284.0 344 3284.0 280Q3284.0 216 3319.5 178.5Q3355.0 141 3406.0 141Q3457.0 141 3492.5 178.0Q3528.0 215 3528.0 279Q3528.0 343 3492.5 380.0Q3457.0 417 3406.0 417Z M4146.0 566Q4215.0 566 4271.0 531.0Q4327.0 496 4359.5 431.0Q4392.0 366 4392.0 280Q4392.0 194 4359.5 128.5Q4327.0 63 4271.0 27.5Q4215.0 -8 4146.0 -8Q4087.0 -8 4043.0 15.5Q3999.0 39 3974.0 78V0H3803.0V740H3974.0V479Q3998.0 518 4043.0 542.0Q4088.0 566 4146.0 566ZM4095.0 417Q4044.0 417 4008.5 380.0Q3973.0 343 3973.0 279Q3973.0 215 4008.5 178.0Q4044.0 141 4095.0 141Q4146.0 141 4182.0 178.5Q4218.0 216 4218.0 280Q4218.0 344 4182.5 380.5Q4147.0 417 4095.0 417Z M4432.0 183H4601.0Q4604.0 154 4628.0 136.0Q4652.0 118 4687.0 118Q4719.0 118 4736.5 130.5Q4754.0 143 4754.0 163Q4754.0 187 4729.0 198.5Q4704.0 210 4648.0 224Q4588.0 238 4548.0 253.5Q4508.0 269 4479.0 302.5Q4450.0 336 4450.0 393Q4450.0 441 4476.5 480.5Q4503.0 520 4554.5 543.0Q4606.0 566 4677.0 566Q4782.0 566 4842.5 514.0Q4903.0 462 4912.0 376H4754.0Q4750.0 405 4728.5 422.0Q4707.0 439 4672.0 439Q4642.0 439 4626.0 427.5Q4610.0 416 4610.0 396Q4610.0 372 4635.5 360.0Q4661.0 348 4715.0 336Q4777.0 320 4816.0 304.5Q4855.0 289 4884.5 254.5Q4914.0 220 4915.0 162Q4915.0 113 4887.5 74.5Q4860.0 36 4808.5 14.0Q4757.0 -8 4689.0 -8Q4616.0 -8 4559.0 17.0Q4502.0 42 4469.0 85.5Q4436.0 129 4432.0 183Z"/></g>
</svg>