<svg viewBox="11.5 11.94 76.5 76.5" xmlns="http://www.w3.org/2000/svg">
 <g transform="translate(10 26) scale(.055)">
  <g transform="translate(0 876) scale(.1 -.1)" fill="#DB2777">
   <path d="m5601 7740c-24-11-52-20-62-20-63 0-217-118-257-196-61-118-64-118-480-124-377-5-377-5-424-40-25-19-60-42-76-52-17-9-42-35-56-57-17-26-36-43-54-46-15-4-43-14-62-23-32-16-154-17-1531-22-1710-6-1515 7-1570-102-40-80-38-120 11-218 22-44 40-90 40-104s23-52 57-94c54-66 89-115 138-196 11-18 40-57 65-86s53-68 63-88c25-46 428-447 476-472 20-10 65-46 101-80s81-70 100-81c34-19 96-60 176-118 22-16 72-45 110-65 65-34 111-64 210-135 57-41 459-241 484-241 12 0 38-9 60-20s48-20 60-20c11 0 56-18 100-40s89-40 100-40c12 0 38-9 60-20s48-20 59-20 57-18 102-40c46-22 98-40 116-40s55-9 83-20 64-20 80-20 52-9 80-20 64-20 80-20 52-9 80-20 64-20 80-20 52-9 80-20 73-20 100-20 72-9 100-20c40-16 74-20 160-20s120-4 160-20 74-20 160-20 120-4 160-20c46-18 74-20 304-20 253 0 253 0 352-49 131-64 262-188 319-302 21-40 53-93 71-118 34-44 34-44 34-228 0-164-2-188-20-223-11-22-20-48-20-60 0-11-32-84-71-161-70-141-70-141-261-331-161-160-202-195-262-225-39-19-87-48-106-63-45-35-454-240-479-240-10 0-38-9-62-20s-60-20-79-20c-121-1-360-227-360-340 0-11-9-38-20-60-19-38-20-59-20-524 0-540-7-499 105-597 38-34 38-34 1e3 -37 1e3 -2 1e3 -2 1098 43 51 25 114 61 139 80 26 20 57 35 73 35 15 0 49 17 80 40 29 22 64 40 77 40s41 9 63 20 49 20 60 20 38 9 60 20 49 20 60 20 38 9 60 20 48 20 59 20c10 0 38 9 62 20 68 31 1e3 31 1079 0 28-11 74-20 103-20 30 0 70-9 96-20 24-11 52-20 62-20 11 0 73-27 139-60s129-60 140-60c36 0 141-61 280-162 45-33 45-33 1081-33s1e3 0 1074 34c113 99 105 52 105 637 0 524 0 524-49 622-28 56-66 113-88 134-40 38-209 128-242 128-10 0-38 9-62 20s-60 20-79 20-55 9-79 20-53 20-66 20c-12 0-42 15-66 34-25 18-76 50-114 70-82 42-147 86-230 154-33 27-73 56-90 64-44 23-130 109-154 154-11 21-39 59-61 84s-48 59-57 75c-9 17-28 46-43 65-36 46-80 134-80 160 0 11-18 56-40 100-27 54-40 93-40 120 0 23-9 58-20 80-18 35-20 59-20 220s2 185 20 220c14 26 20 59 20 100s6 74 20 100c11 22 20 48 20 60 0 25 81 188 121 244 57 80 99 141 118 176 11 19 39 55 61 80s50 63 62 84c24 46 267 290 312 313 17 9 56 37 86 63s84 62 120 80 81 45 100 60c46 36 374 200 400 200 11 0 56 18 100 40s89 40 100 40c12 0 38 9 60 20s49 20 60 20 38 9 60 20 48 20 59 20c10 0 38 9 62 20s58 20 76 20 55 9 83 20c37 15 74 20 140 20s103 5 140 20c34 13 75 20 123 20 50 0 85 6 116 20 24 11 52 20 62 20 25 0 194 85 239 120 19 15 49 34 66 43 42 22 248 226 269 268 10 19 30 50 45 69 50 63 120 216 120 260 0 27 13 66 40 120 40 80 40 80 40 366 0 443 430 388-3097 394-2828 5-3e3 6-3e3 23-60 28-675 26-748-3-46-18-74-20-300-20s-254 2-300 20c-74 29-334 29-399 0z"/>
  </g>
 </g>
</svg>
